<svg xmlns="http://www.w3.org/2000/svg" viewBox="0 0 64 64"><defs><style>.cls-1{fill:#000842;}.cls-2{fill:#f6ae2d;}.cls-3{fill:#fff;}</style></defs><title>Zeichenfläche 1</title><g id="Ebene_1" data-name="Ebene 1"><rect class="cls-1" width="64" height="64"/></g><g id="yellowpages"><rect class="cls-2" x="13.92" y="37.52" width="35.56" height="11.15"/><path class="cls-3" d="M50.07,25.06,38.35,32.52V26.76a2,2,0,0,0-3.11-1.7L23.51,32.52V12a2,2,0,0,0-2-2H12.05c-1.12,0-2,.91-2,3V52.83a2.73,2.73,0,0,0,2,1H51.16a2.75,2.75,0,0,0,2-1v-25C53.18,25.17,51.42,24.2,50.07,25.06Zm-6,21.7H39.69a1,1,0,0,1-1-1V41.36a1,1,0,0,1,1-1h4.39a1,1,0,0,1,1,1v4.39A1,1,0,0,1,44.08,46.76Zm-10.79,0H28.9a1,1,0,0,1-1-1V41.36a1,1,0,0,1,1-1h4.39a1,1,0,0,1,1,1v4.39A1,1,0,0,1,33.29,46.76Zm-10.79,0H18.11a1,1,0,0,1-1-1V41.36a1,1,0,0,1,1-1H22.5a1,1,0,0,1,1,1v4.39A1,1,0,0,1,22.5,46.76Z"/></g></svg>