<svg xmlns="http://www.w3.org/2000/svg" viewBox="0 0 32 32"><defs><style>.a{fill:#fff;}.b{fill:#000842;}.b,.c{fill-rule:evenodd;}.c,.d{fill:#f6ae2d;}</style></defs><rect class="a" width="32" height="32"/><polygon class="b" points="4 7.92 15.46 6 15.46 26.72 16.54 26.72 16.54 10.06 28 11.61 28 26.72 4 26.72 4 7.92 4 7.92"/><polygon class="c" points="17.9 17.3 20.12 17.3 20.12 19.25 17.9 19.25 17.9 17.3 17.9 17.3"/><rect class="d" x="21.15" y="17.29" width="2.23" height="1.96"/><rect class="d" x="24.41" y="17.29" width="2.23" height="1.96"/><polygon class="c" points="17.9 20.46 20.12 20.46 20.12 22.42 17.9 22.42 17.9 20.46 17.9 20.46"/><rect class="d" x="21.15" y="20.46" width="2.23" height="1.96"/><rect class="d" x="24.41" y="20.46" width="2.23" height="1.96"/><rect class="d" x="5.36" y="17.57" width="2.23" height="1.96"/><rect class="d" x="8.62" y="17.57" width="2.23" height="1.96"/><rect class="d" x="11.88" y="17.57" width="2.23" height="1.96"/><rect class="d" x="5.36" y="14.4" width="2.23" height="1.96"/><rect class="d" x="8.62" y="14.4" width="2.23" height="1.96"/><rect class="d" x="11.88" y="14.4" width="2.23" height="1.96"/><rect class="d" x="5.36" y="11.23" width="2.23" height="1.96"/><rect class="d" x="8.62" y="11.23" width="2.23" height="1.96"/><rect class="d" x="11.88" y="11.23" width="2.23" height="1.96"/></svg>